<?xml version="1.0" ?><svg id="Layer_1_1_" style="enable-background:new 0 0 64 64;" version="1.1" viewBox="0 0 64 64" xml:space="preserve" xmlns="http://www.w3.org/2000/svg" xmlns:xlink="http://www.w3.org/1999/xlink"><g><g><path d="M43,29l0.013-6.148c-1.336-6.822-4.01-13.348-7.903-19.188l0,0C34.416,2.624,33.25,2,32,2    s-2.416,0.624-3.109,1.664l0,0c-3.893,5.84-6.567,12.366-7.903,19.188L21,29l3,10l5,12.101c0,2.564-0.597,5.093-1.744,7.387    C27.088,58.825,27,59.196,27,59.573C27,60.913,28.087,62,29.427,62h5.146C35.913,62,37,60.913,37,59.573    c0-0.377-0.088-0.748-0.256-1.085C35.597,56.194,35,53.665,35,51.101L39,40L43,29z" style="fill:#FCD770;"/><path d="M32.003,49.838l-0.005,2.323l2.299-0.341c0.256-0.038,0.49-0.104,0.736-0.154    C35.026,51.477,35,51.29,35,51.101L39,40l4-11l0.013-6.148c-0.11-0.562-0.243-1.119-0.372-1.677    C37.368,24.879,32.037,32.83,32.003,49.838z" style="fill:#FFC729;"/><path d="M53,20c0,0-18.932-1.988-18.997,29.842C46.822,47.938,45.378,27.622,53,20z" style="fill:#A0D468;"/><path d="M29.703,51.82l2.299,0.341l-0.005-2.323c-0.034-17.008-5.365-24.959-10.638-28.663    c-0.128,0.558-0.261,1.115-0.372,1.677L21,29l3,10l5,12.101c0,0.19-0.026,0.377-0.033,0.566    C29.213,51.717,29.447,51.782,29.703,51.82z" style="fill:#FFC729;"/><path d="M11,20c7.622,7.622,6.178,27.938,18.997,29.842C29.932,18.012,11,20,11,20z" style="fill:#A0D468;"/></g><g><path d="M53.156,19.012c-0.216-0.034-4.737-0.695-9.484,2.19c-1.452-6.472-4.039-12.555-7.73-18.092C35.061,1.789,33.588,1,32,1    s-3.061,0.789-3.941,2.109C24.406,8.589,21.834,14.603,20.373,21h-0.401c-4.615-2.641-8.916-2.021-9.128-1.988l-1.94,0.306    l1.389,1.389c2.835,2.836,4.359,7.599,5.971,12.642C18.52,40.404,21.05,48.243,28,50.403v0.697c0,2.396-0.566,4.796-1.638,6.939    C26.125,58.514,26,59.044,26,59.573C26,61.463,27.538,63,29.427,63h5.146C36.462,63,38,61.463,38,59.573    c0-0.529-0.125-1.06-0.362-1.533C36.566,55.896,36,53.497,36,51.101v-0.697c6.95-2.161,9.48-9.999,11.736-17.055    c1.612-5.042,3.136-9.806,5.971-12.642l1.389-1.389L53.156,19.012z M32,3c0.917,0,1.769,0.456,2.277,1.219    C34.528,4.595,34.76,4.981,35,5.362V7h0.995c1.134,1.954,2.141,3.968,3.005,6.041V15h0.763c0.244,0.661,0.472,1.328,0.69,2H39v2h2    v-0.206c0.343,1.206,0.645,2.428,0.902,3.664c-0.119,0.096-0.238,0.18-0.356,0.281c-1.911,1.633-3.497,3.73-4.769,6.26H35v2h0.871    c-0.827,2.049-1.476,4.343-1.945,6.877c-1.284,0.145-2.576,0.144-3.851,0.001c-0.47-2.535-1.119-4.828-1.945-6.878H29v-2h-1.776    c-1.273-2.53-2.859-4.627-4.769-6.26c-0.118-0.101-0.238-0.185-0.356-0.281c0.257-1.237,0.559-2.458,0.902-3.664V19h2v-2h-1.452    c0.217-0.672,0.445-1.339,0.69-2H25v-1.959c0.864-2.073,1.872-4.086,3.005-6.041H29V5.362c0.24-0.381,0.472-0.767,0.723-1.144    C30.231,3.456,31.083,3,32,3z M33,48.963C32.676,48.987,32.343,49,32,49s-0.676-0.013-1-0.037    c-0.002-3.268-0.202-6.276-0.59-9.034C30.94,39.974,31.471,40,32,40c0.528,0,1.059-0.027,1.59-0.071    C33.202,42.686,33.002,45.695,33,48.963z M18.169,32.74c-1.336-4.179-2.715-8.47-4.951-11.628    c4.661,0.798,6.261,6.214,7.938,11.933c1.095,3.733,2.129,7.259,4.076,9.596l1.536-1.281c-1.681-2.017-2.658-5.349-3.692-8.877    c-0.973-3.318-2.022-6.858-3.822-9.482h0.151c0.596,0.368,1.194,0.782,1.785,1.29c5.13,4.41,7.757,12.6,7.81,24.345    C22.726,46.99,20.504,40.042,18.169,32.74z M35.849,58.935C35.948,59.132,36,59.353,36,59.573C36,60.36,35.36,61,34.573,61h-5.146    C28.64,61,28,60.36,28,59.573c0-0.221,0.052-0.441,0.151-0.639C29.36,56.515,30,53.806,30,51.101v-0.244    C30.636,50.944,31.297,51,32,51s1.364-0.056,2-0.143v0.244C34,53.806,34.64,56.515,35.849,58.935z M45.831,32.74    c-2.153,6.734-4.218,13.157-9.445,15.407c0.901-1.812,1.785-4.217,2.752-6.847c1.641-4.464,3.501-9.523,5.57-11.593l-1.414-1.414    c-2.381,2.38-4.237,7.432-6.033,12.316c-0.734,1.998-1.482,4.03-2.209,5.667c0.378-10.487,2.982-17.878,7.76-21.986    c2.942-2.529,6.099-3.191,8.07-3.329C48.583,24.133,47.188,28.497,45.831,32.74z"/><rect height="2" width="2" x="31" y="5"/><rect height="2" width="2" x="27" y="9"/><rect height="2" width="2" x="31" y="9"/><rect height="2" width="2" x="35" y="9"/><rect height="2" width="2" x="27" y="13"/><rect height="2" width="2" x="31" y="13"/><rect height="2" width="2" x="35" y="13"/><rect height="2" width="2" x="27" y="17"/><rect height="2" width="2" x="31" y="17"/><rect height="2" width="2" x="35" y="17"/><rect height="2" width="2" x="23" y="21"/><rect height="2" width="2" x="27" y="21"/><rect height="2" width="2" x="31" y="21"/><rect height="2" width="2" x="35" y="21"/><rect height="2" width="2" x="39" y="21"/><rect height="2" width="2" x="27" y="25"/><rect height="2" width="2" x="31" y="25"/><rect height="2" width="2" x="35" y="25"/><rect height="2" width="2" x="31" y="29"/><rect height="2" width="2" x="31" y="33"/></g></g></svg>